<?xml version="1.0"?>
<svg xmlns="http://www.w3.org/2000/svg" xmlns:xlink="http://www.w3.org/1999/xlink" xmlns:svgjs="http://svgjs.com/svgjs" version="1.1" width="512" height="512" x="0" y="0" viewBox="0 0 48 48" style="enable-background:new 0 0 512 512" xml:space="preserve" class=""><g transform="matrix(-1,0,0,1,48.000423192977905,0)"><path xmlns="http://www.w3.org/2000/svg" id="XMLID_959_" d="m47.12 31.403-9.992-9.992c-1.164-1.164-3.051-1.164-4.215 0-1.164 1.165-1.164 3.052 0 4.216l3.037 3.037c-20.385 1.001-33.64-12.68-33.762-26.704-.004-.507-.716-.61-.874-.144-4.922 14.579 4.03 32.89 27.427 36.201 2.266.295 4.558.519 6.868.681l-2.697 2.697c-1.164 1.164-1.164 3.052 0 4.215 1.164 1.164 3.051 1.165 4.215 0l9.992-9.992c1.165-1.164 1.165-3.051.001-4.215z" fill="#006599" data-original="#ffcc66" class=""/></g></svg>
