<?xml version="1.0" encoding="utf-8"?>
<!-- Generator: Adobe Illustrator 25.0.1, SVG Export Plug-In . SVG Version: 6.00 Build 0)  -->
<svg version="1.1" id="Capa_1" xmlns="http://www.w3.org/2000/svg" xmlns:xlink="http://www.w3.org/1999/xlink" x="0px" y="0px"
	 viewBox="0 0 512 512" style="enable-background:new 0 0 512 512;" xml:space="preserve">
<style type="text/css">
	.st0{fill:#B5ADB6;}
	.st1{fill:#FFFFFF;}
	.st2{fill:#D78878;}
	.st3{fill:#FD9468;}
	.st4{fill:#A79BA7;}
	.st5{fill:#FF5B5B;}
	.st6{fill:#E7F0EF;}
</style>
<g>
	<g>
		<path class="st0" d="M444.2,184.7v239.6c0,16.6-13.4,30-30,30h-377c-16.6,0-30-13.4-30-30V184.7c0-16.6,13.4-30,30-30h377
			C430.8,154.7,444.2,168.1,444.2,184.7z"/>
		<path class="st1" d="M171.9,349.3H82.2c-16.6,0-30-13.4-30-30v-89.6c0-16.6,13.4-30,30-30h89.6c16.6,0,30,13.4,30,30v89.6
			C201.9,335.9,188.4,349.3,171.9,349.3z"/>
		<circle class="st2" cx="127.1" cy="265.9" r="36.2"/>
		<path class="st3" d="M82.2,349.3h89.6c2.9,0,5.6-0.4,8.2-1.2c-3.7-26-26-46-53-46s-49.4,20-53,46
			C76.6,348.9,79.4,349.3,82.2,349.3L82.2,349.3z"/>
		<g>
			<g>
				<path class="st4" d="M444.2,184.7v99c-13,4.3-26.9,6.7-41.3,6.7c-72.4,0-131.3-58.9-131.3-131.3c0-1.4,0-2.9,0.1-4.3h142.6
					C430.8,154.7,444.2,168.1,444.2,184.7L444.2,184.7z"/>
			</g>
		</g>
	</g>
	<path d="M399.5,401.8h-347c-4.1,0-7.5,3.4-7.5,7.5s3.4,7.5,7.5,7.5h347c4.1,0,7.5-3.4,7.5-7.5S403.6,401.8,399.5,401.8z
		 M399.5,371.8h-347c-4.1,0-7.5,3.4-7.5,7.5s3.4,7.5,7.5,7.5h347c4.1,0,7.5-3.4,7.5-7.5S403.6,371.8,399.5,371.8z M444.5,274.1
		c-4.1,0-7.5,3.4-7.5,7.5v142.7c0,12.4-10.1,22.5-22.5,22.5h-377c-12.4,0-22.5-10.1-22.5-22.5V184.7c0-12.4,10.1-22.5,22.5-22.5
		h234.3c4.1,0,7.5-3.4,7.5-7.5s-3.4-7.5-7.5-7.5H37.5C16.8,147.2,0,164,0,184.7v239.6c0,20.7,16.8,37.5,37.5,37.5h377
		c20.7,0,37.5-16.8,37.5-37.5V281.6C452,277.4,448.6,274.1,444.5,274.1z M72.3,355.4c2.3,0.6,5.8,1.3,10.2,1.4h89.6
		c19.1,0.4,37.9-16.7,37.5-37.5v-89.6c0-20.7-16.8-37.5-37.5-37.5H82.5C61.8,192.2,45,209,45,229.7v89.6
		C45,336.5,56.6,350.9,72.3,355.4z M83.4,341.8c6-18.8,23.7-32.2,43.9-32.2c20.2,0,38,13.4,43.9,32.2H83.4z M98.6,265.9
		c0-15.8,12.9-28.7,28.7-28.7s28.7,12.9,28.7,28.7s-12.9,28.7-28.7,28.7S98.6,281.8,98.6,265.9z M60,229.7
		c0-12.4,10.1-22.5,22.5-22.5h89.6c12.4,0,22.5,10.1,22.5,22.5v89.6c0,7.4-3.6,13.9-9.1,18c-5.1-16.2-16.8-29.4-31.8-36.6
		c10.5-8,17.3-20.6,17.3-34.8c0-24.1-19.6-43.7-43.7-43.7s-43.7,19.6-43.7,43.7c0,14.2,6.8,26.8,17.3,34.8
		c-15,7.2-26.7,20.4-31.8,36.6c-5.5-4.1-9.1-10.7-9.1-18L60,229.7z M399.5,311.8h-152c-4.1,0-7.5,3.4-7.5,7.5s3.4,7.5,7.5,7.5h152
		c4.1,0,7.5-3.4,7.5-7.5S403.6,311.8,399.5,311.8z M399.5,221.8h-152c-4.1,0-7.5,3.4-7.5,7.5s3.4,7.5,7.5,7.5h152
		c4.1,0,7.5-3.4,7.5-7.5S403.6,221.8,399.5,221.8z M399.5,191.8h-152c-4.1,0-7.5,3.4-7.5,7.5s3.4,7.5,7.5,7.5h152
		c4.1,0,7.5-3.4,7.5-7.5S403.6,191.8,399.5,191.8z M399.5,341.8h-152c-4.1,0-7.5,3.4-7.5,7.5s3.4,7.5,7.5,7.5h152
		c4.1,0,7.5-3.4,7.5-7.5S403.6,341.8,399.5,341.8z"/>
</g>
<g>
	<g>
		<g>
			<path class="st5" d="M502.9,166.6c0,56.4-45.8,102.2-102.2,102.2c-56.4,0-102.2-45.8-102.2-102.2c0-56.4,45.8-102.2,102.2-102.2
				C457.2,64.4,502.9,110.1,502.9,166.6z"/>
		</g>
		<g>
			<path class="st6" d="M444.1,190.7L420,166.6l24.1-24.1c5.3-5.3,5.3-13.9,0-19.3c-5.3-5.3-14-5.3-19.3,0l-24.1,24.1l-24.1-24.1
				c-5.3-5.3-14-5.3-19.3,0c-5.3,5.3-5.3,14,0,19.3l24.1,24.1l-24.1,24.1c-5.3,5.3-5.3,14,0,19.3c5.3,5.3,14,5.3,19.3,0l24.1-24.1
				l24.1,24.1c5.3,5.3,13.9,5.3,19.3,0C449.4,204.6,449.4,196,444.1,190.7L444.1,190.7z"/>
		</g>
	</g>
	<g>
		<path d="M454.4,132.8c0-5.3-2.1-10.4-5.9-14.1c-3.8-3.8-8.8-5.9-14.1-5.9c-5.3,0-10.4,2.1-14.1,5.9l-19.6,19.6l-19.6-19.6
			c-3.8-3.8-8.8-5.9-14.1-5.9s-10.4,2.1-14.1,5.9c-3.8,3.8-5.9,8.8-5.9,14.1c0,5.3,2.1,10.4,5.9,14.1l19.6,19.6l-19.6,19.6
			c-7.8,7.8-7.8,20.5,0,28.3c3.8,3.8,8.8,5.9,14.1,5.9c5.3,0,10.4-2.1,14.1-5.9l19.6-19.6l19.6,19.6c3.8,3.8,8.8,5.9,14.1,5.9
			c5.3,0,10.4-2.1,14.1-5.9c7.8-7.8,7.8-20.5,0-28.3L429,166.6l19.6-19.6C452.3,143.2,454.4,138.2,454.4,132.8L454.4,132.8z
			 M439.6,138l-24.1,24.1c-1.2,1.2-1.9,2.8-1.9,4.5s0.7,3.3,1.9,4.5l24.1,24.1c2.8,2.8,2.8,7.4,0,10.3c-1.4,1.4-3.2,2.1-5.1,2.1
			s-3.8-0.8-5.1-2.1l-24.1-24.1c-1.2-1.2-2.8-1.9-4.5-1.9c-1.7,0-3.3,0.7-4.5,1.9l-24.1,24.1c-1.4,1.4-3.2,2.1-5.1,2.1
			c-1.9,0-3.8-0.8-5.1-2.1c-2.8-2.8-2.8-7.4,0-10.3l24.1-24.1c1.2-1.2,1.9-2.8,1.9-4.5s-0.7-3.3-1.9-4.5L361.8,138
			c-1.4-1.4-2.1-3.2-2.1-5.1c0-1.9,0.8-3.8,2.1-5.1c1.4-1.4,3.2-2.1,5.1-2.1c1.9,0,3.8,0.8,5.1,2.1l24.1,24.1c2.5,2.5,6.5,2.5,9,0
			l24.1-24.1c1.4-1.4,3.2-2.1,5.1-2.1c1.9,0,3.8,0.8,5.1,2.1s2.1,3.2,2.1,5.1C441.7,134.8,440.9,136.6,439.6,138L439.6,138z"/>
	</g>
</g>
<g>
	<g>
		<path d="M478.7,87.1c-21.1-21.1-49.2-32.7-79-32.7s-57.9,11.6-79,32.7c-21.1,21.1-32.7,49.2-32.7,79c0,29.8,11.6,57.9,32.7,79
			s49.2,32.7,79,32.7c29.8,0,57.9-11.6,79-32.7c21.1-21.1,32.7-49.2,32.7-79C511.4,136.2,499.8,108.2,478.7,87.1L478.7,87.1z
			 M399.6,264.7c-54.4,0-98.6-44.2-98.6-98.6s44.2-98.6,98.6-98.6s98.6,44.2,98.6,98.6S454,264.7,399.6,264.7L399.6,264.7z"/>
	</g>
</g>
</svg>
