<?xml version="1.0"?>
<svg xmlns="http://www.w3.org/2000/svg" xmlns:xlink="http://www.w3.org/1999/xlink" xmlns:svgjs="http://svgjs.com/svgjs" version="1.1" width="512" height="512" x="0" y="0" viewBox="0 0 54 62" style="enable-background:new 0 0 512 512" xml:space="preserve" class=""><g><g xmlns="http://www.w3.org/2000/svg"><g><g><path d="m16.06 13.07c-2.87.46-5.06 2.94-5.06 5.93v.41.01c-3.27.92-5.92 3.32-7.19 6.43l-.58-3.5c-.15-.9-.23-1.81-.23-2.72 0-2.42.53-4.78 1.52-6.93s2.44-4.08 4.27-5.66l1.21-1.04 2 2c1.9-2.22 4.25-3.97 6.84-5.16 2.6-1.2 5.46-1.84 8.38-1.84h1.78l2 4c2.3-1.31 4.74-2.31 7.27-2.98 2.53-.68 5.15-1.02 7.79-1.02h.94l-4 7 6-1 .27.33c2.41 3.02 3.73 6.78 3.73 10.65 0 2.64-.62 5.25-1.8 7.62l-.65 1.29c-1.29-4.42-5.28-7.67-10.06-7.88v-.01c-2.02-2.44-5.07-4-8.49-4h-12c-1.6 0-3.03-.76-3.94-1.93z" fill="#e56f04" data-original="#b27946" class=""/></g><g><path d="m27 51v10h-18c2.21 0 4-1.79 4-4v-2c1.82-2.43 4.73-4 8-4l1 4z" fill="#469fb2" data-original="#fcd770" class=""/></g><g><path d="m53 51v6c0 2.21-1.79 4-4 4h-4c-2.21 0-4-1.79-4-4v-2-4h4v-2h4v2z" fill="#469fb2" data-original="#fcd770" class=""/></g><g><path d="m45 61h-18v-10l5 4 1-4c3.27 0 6.18 1.57 8 4v2c0 2.21 1.79 4 4 4z" fill="#469fb2" data-original="#fcd770" class=""/></g><g><path d="m13 55v2c0 2.21-1.79 4-4 4h-4c-2.21 0-4-1.79-4-4v-6h4v-2h4v2h4z" fill="#469fb2" data-original="#fcd770" class=""/></g><g><path d="m53 46v5h-4v-2h-4v2h-4v-4-1c0-.55.45-1 1-1h1 8 1c.55 0 1 .45 1 1z" fill="#ffc729" data-original="#ffc729" class=""/></g><g><path d="m33 51-1 4-5-4z" fill="#ffc729" data-original="#ffc729" class=""/></g><g><path d="m27 51-5 4-1-4z" fill="#ffc729" data-original="#ffc729" class=""/></g><g><path d="m13 47v4h-4v-2h-4v2h-4v-5c0-.55.45-1 1-1h1 8 1c.55 0 1 .45 1 1z" fill="#ffc729" data-original="#ffc729" class=""/></g><g><path d="m51 39.16v5.84h-8v-4.41-.01c2.69-.75 4.96-2.51 6.38-4.83 1 .82 1.62 2.06 1.62 3.41z" fill="#f0d0b4" data-original="#f0d0b4" class=""/></g><g><path d="m50.55 26.89c.29.98.45 2.03.45 3.11 0 2.11-.59 4.08-1.62 5.75-1.42 2.32-3.69 4.08-6.38 4.83-.95.28-1.96.42-3 .42-5.04 0-9.28-3.38-10.58-8-.28-.95-.42-1.96-.42-3s.14-2.05.42-3c.43-1.53 1.18-2.92 2.18-4.1 2.01-2.39 5.03-3.9 8.4-3.9.16 0 .33 0 .49.01 4.78.21 8.77 3.46 10.06 7.88z" fill="#ccd1d9" data-original="#ccd1d9" class=""/></g><g><circle cx="40" cy="30" fill="#69d6f4" r="7" data-original="#69d6f4" class=""/></g><g><path d="m43 40.59v4.41h-1c-.55 0-1 .45-1 1v1c-1.82 2.43-4.73 4-8 4h-6-6c-3.27 0-6.18-1.57-8-4v-1c0-.55-.45-1-1-1h-1v-4.41-.01c.95.28 1.96.42 3 .42 5.04 0 9.28-3.38 10.58-8h.01 4.82.01c1.3 4.62 5.54 8 10.58 8 1.04 0 2.05-.14 3-.42z" fill="#f0d0b4" data-original="#f0d0b4" class=""/></g><g><path d="m40.49 19v.01c-.16-.01-.33-.01-.49-.01-3.37 0-6.39 1.51-8.4 3.9l-1.49-2.24c-.69-1.04-1.86-1.66-3.11-1.66s-2.42.62-3.11 1.66l-1.49 2.24c-2.01-2.39-5.03-3.9-8.4-3.9-1.04 0-2.05.14-3 .42v-.01-.41c0-2.99 2.19-5.47 5.06-5.93.91 1.17 2.34 1.93 3.94 1.93h12c3.42 0 6.47 1.56 8.49 4z" fill="#f0d0b4" data-original="#f0d0b4" class=""/></g><g><path d="m31.6 22.9-1.49-2.24c-.69-1.04-1.86-1.66-3.11-1.66s-2.42.62-3.11 1.66l-1.49 2.24c1 1.18 1.75 2.57 2.18 4.1.28.95.42 1.96.42 3s-.14 2.05-.42 3h.01 4.82.01c-.28-.95-.42-1.96-.42-3s.14-2.05.42-3c.43-1.53 1.18-2.92 2.18-4.1z" fill="#aab2bd" data-original="#aab2bd"/></g><g><path d="m24.58 27c.28.95.42 1.96.42 3s-.14 2.05-.42 3c-1.3 4.62-5.54 8-10.58 8-1.04 0-2.05-.14-3-.42-2.69-.75-4.96-2.51-6.38-4.83-1.03-1.67-1.62-3.64-1.62-5.75 0-1.47.29-2.87.81-4.15 1.27-3.11 3.92-5.51 7.19-6.43.95-.28 1.96-.42 3-.42 3.37 0 6.39 1.51 8.4 3.9 1 1.18 1.75 2.57 2.18 4.1z" fill="#ccd1d9" data-original="#ccd1d9" class=""/></g><g><circle cx="14" cy="30" fill="#69d6f4" r="7" data-original="#69d6f4" class=""/></g><g><path d="m11 40.59v4.41h-8v-5.84c0-1.35.62-2.59 1.62-3.41 1.42 2.32 3.69 4.08 6.38 4.83z" fill="#f0d0b4" data-original="#f0d0b4" class=""/></g></g><g><path d="m14 38c4.411 0 8-3.589 8-8s-3.589-8-8-8-8 3.589-8 8 3.589 8 8 8zm0-14c3.309 0 6 2.691 6 6s-2.691 6-6 6-6-2.691-6-6 2.691-6 6-6z" fill="#000000" data-original="#000000" class=""/><path d="m12 29.172h2v5.657h-2z" transform="matrix(.707 -.707 .707 .707 -18.82 18.565)" fill="#000000" data-original="#000000" class=""/><path d="m15 26.172h2v5.657h-2z" transform="matrix(.707 -.707 .707 .707 -15.82 19.808)" fill="#000000" data-original="#000000" class=""/><path d="m32 30c0 4.411 3.589 8 8 8s8-3.589 8-8-3.589-8-8-8-8 3.589-8 8zm14 0c0 3.309-2.691 6-6 6s-6-2.691-6-6 2.691-6 6-6 6 2.691 6 6z" fill="#000000" data-original="#000000" class=""/><path d="m38 29.172h2v5.657h-2z" transform="matrix(.707 -.707 .707 .707 -11.205 36.95)" fill="#000000" data-original="#000000" class=""/><path d="m41 26.172h2v5.657h-2z" transform="matrix(.707 -.707 .707 .707 -8.205 38.192)" fill="#000000" data-original="#000000" class=""/><circle cx="27" cy="23" r="1" fill="#000000" data-original="#000000" class=""/><path d="m32 42h-2c0 1.103-.897 2-2 2h-5v2h5c2.206 0 4-1.794 4-4z" fill="#000000" data-original="#000000" class=""/><path d="m52 44v-4.838c0-1.343-.5-2.61-1.381-3.591.878-1.667 1.381-3.56 1.381-5.571 0-1.031-.145-2.027-.39-2.982l.486-.972c1.246-2.493 1.904-5.283 1.904-8.068 0-4.082-1.404-8.084-3.953-11.269l-.632-.792-4.502.75 3.811-6.667h-2.661c-5.096 0-10.132 1.25-14.633 3.624l-1.812-3.624h-2.398c-5.791 0-11.292 2.374-15.257 6.549l-1.91-1.911-1.912 1.639c-3.903 3.344-6.141 8.21-6.141 13.35 0 .967.08 1.94.239 2.891l.543 3.258c-.497 1.316-.782 2.736-.782 4.224 0 2.011.503 3.904 1.381 5.571-.881.981-1.381 2.248-1.381 3.591v4.838c-1.103 0-2 .897-2 2v11c0 2.757 2.243 5 5 5h44c2.757 0 5-2.243 5-5v-11c0-1.103-.897-2-2-2zm-8 4v2h-2v-4h10v4h-2v-2zm-40-18c0-5.514 4.486-10 10-10s10 4.486 10 10-4.486 10-10 10-10-4.486-10-10zm16-14h12c2.275 0 4.443.769 6.192 2.151-2.479.377-4.709 1.509-6.448 3.162l-.803-1.204c-.88-1.32-2.354-2.109-3.941-2.109s-3.061.789-3.941 2.109l-.803 1.204c-2.153-2.047-5.057-3.313-8.256-3.313-.657 0-1.297.067-1.926.169.318-1.928 1.731-3.477 3.637-3.982 1.09 1.117 2.609 1.813 4.289 1.813zm30 14c0 5.514-4.486 10-10 10s-10-4.486-10-10 4.486-10 10-10 10 4.486 10 10zm-21.819 2h-2.361c.109-.652.18-1.317.18-2s-.071-1.348-.181-2h2.361c-.109.652-.18 1.317-.18 2s.071 1.348.181 2zm.519-6h-3.4c-.403-1.134-.969-2.187-1.674-3.135l1.097-1.646c.508-.763 1.36-1.219 2.277-1.219s1.769.456 2.277 1.219l1.097 1.646c-.705.948-1.271 2.001-1.674 3.135zm-16.7 15.819c.652.11 1.317.181 2 .181 5.213 0 9.647-3.347 11.3-8h3.4c1.653 4.653 6.087 8 11.3 8 .683 0 1.348-.071 2-.181v2.181c-1.103 0-2 .897-2 2v.637c-1.718 2.135-4.247 3.363-7 3.363h-12c-2.753 0-5.282-1.228-7-3.363v-.637c0-1.103-.897-2-2-2zm2 7.671c.742.615 1.562 1.114 2.43 1.51-.868.396-1.688.895-2.43 1.51zm10.149 2.51-1.557 1.246-.312-1.246zm7.571 0-.311 1.246-1.558-1.246zm8.28-2.51v3.02c-.742-.615-1.562-1.114-2.43-1.51.868-.396 1.688-.895 2.43-1.51zm10-10.328v4.838h-6v-2.7c2.177-.773 4.063-2.152 5.458-3.94.339.535.542 1.15.542 1.802zm-45.788-16.973c-.141-.842-.212-1.705-.212-2.562 0-4.555 1.983-8.868 5.441-11.832l.506-.434 2.109 2.109.702-.82c3.625-4.226 8.895-6.65 14.462-6.65h1.162l2.196 4.393.918-.524c4.199-2.399 8.945-3.727 13.774-3.857l-4.184 7.322 7.497-1.25c2.205 2.811 3.417 6.318 3.417 9.894 0 2.214-.492 4.42-1.383 6.448-1.398-2.652-3.76-4.711-6.617-5.725v-.629c0-4.526-3.379-8.421-7.858-9.061l-.283 1.979c3.5.5 6.141 3.544 6.141 7.081v.109c-.34-.057-.684-.104-1.033-.132-2.28-2.57-5.517-4.048-8.967-4.048h-12c-2.206 0-4-1.794-4-4h-2c0 .873.192 1.701.529 2.451-2.597.969-4.394 3.394-4.515 6.245-2.294.812-4.265 2.298-5.68 4.224zm-.212 16.973c0-.652.203-1.267.542-1.802 1.395 1.788 3.281 3.167 5.458 3.94v2.7h-6zm8 6.838v4h-2v-2h-6v2h-2v-4zm-3 14h-4c-1.654 0-3-1.346-3-3v-5h4v-2h2v2h4v5c0 1.654-1.346 3-3 3zm5-3v-1.637c1.556-1.934 3.779-3.113 6.231-3.319l1.178 4.71 4.591-3.673v6.919h-13.002c.629-.836 1.002-1.875 1.002-3zm14 3v-6.919l4.592 3.674 1.178-4.71c2.452.205 4.675 1.385 6.231 3.319v1.636c0 1.125.373 2.164 1.002 3zm21 0h-4c-1.654 0-3-1.346-3-3v-5h4v-2h2v2h4v5c0 1.654-1.346 3-3 3z" fill="#000000" data-original="#000000" class=""/></g></g></g></svg>
