<?xml version="1.0" encoding="utf-8"?>
<!-- Generator: Adobe Illustrator 25.0.1, SVG Export Plug-In . SVG Version: 6.00 Build 0)  -->
<svg version="1.1" id="Capa_1" xmlns="http://www.w3.org/2000/svg" xmlns:xlink="http://www.w3.org/1999/xlink" x="0px" y="0px"
	 viewBox="0 0 512 512" style="enable-background:new 0 0 512 512;" xml:space="preserve">
<g>
	<g>
		<path d="M506.1,477.9L361.7,333.4c65.8-80.1,61.3-198.9-13.5-273.7c-79.6-79.6-209-79.6-288.6,0s-79.6,209,0,288.6
			c74.8,74.8,193.6,79.3,273.7,13.5l144.5,144.5c7.8,7.8,20.5,7.8,28.3,0C514,498.3,514,485.7,506.1,477.9z M319.9,319.9
			c-64,64-168,64-232,0c-64-64-64-168,0-232c64-64,168-64,232,0C383.9,151.9,383.9,256,319.9,319.9z"/>
	</g>
</g>
<g>
	<g>
		<path d="M204,224h97.9c11,0,20-9,20-20s-9-20-20-20H204l0,0H106c-11,0-20,9-20,20s9,20,20,20H204L204,224z"/>
	</g>
</g>
</svg>
